<?xml version="1.0" encoding="UTF-8"?>
<svg width="23px" height="20px" viewBox="0 0 23 20" version="1.1" xmlns="http://www.w3.org/2000/svg" xmlns:xlink="http://www.w3.org/1999/xlink">
    <!-- Generator: Sketch 46.2 (44496) - http://www.bohemiancoding.com/sketch -->
    <title>heart (2)</title>
    <desc>Created with Sketch.</desc>
    <defs></defs>
    <g id="Page-1" stroke="none" stroke-width="1" fill="none" fill-rule="evenodd">
        <g id="landing-page" transform="translate(-1273.000000, -34.000000)" fill-rule="nonzero" fill="#FFFFFF">
            <g id="heart-(2)" transform="translate(1273.000000, 34.000000)">
                <path d="M11.3931889,19.9787555 C11.0687917,19.9787555 10.7560423,19.8629386 10.5123098,19.6525493 C9.59179387,18.8593065 8.70430866,18.1138638 7.92130508,17.4563117 L7.91730664,17.4528851 C5.62166668,15.5249452 3.63929774,13.8599918 2.26000145,12.2198807 C0.718158934,10.3863418 0,8.64788925 0,6.74873219 C0,4.90354303 0.642014247,3.20124039 1.80765349,1.95518092 C2.98720039,0.694387325 4.6057091,2.84217094e-14 6.36555486,2.84217094e-14 C7.68087572,2.84217094e-14 8.88545649,0.409813596 9.94574483,1.21796189 C10.4808437,1.62589088 10.9658748,2.12513706 11.3931889,2.70747671 C11.8206768,2.12513706 12.3055341,1.62589088 12.8408067,1.21796189 C13.9010951,0.409813596 15.1056759,2.84217094e-14 16.4209967,2.84217094e-14 C18.1806686,2.84217094e-14 19.7993512,0.694387325 20.9788981,1.95518092 C22.1445373,3.20124039 22.7863777,4.90354303 22.7863777,6.74873219 C22.7863777,8.64788925 22.0683927,10.3863418 20.5265501,12.2197094 C19.1472538,13.8599918 17.1650587,15.5247739 14.8697665,17.4525425 C14.0853721,18.1111225 13.1964962,18.8577645 12.273894,19.652892 C12.0303354,19.8629386 11.7174121,19.9787555 11.3931889,19.9787555 L11.3931889,19.9787555 Z M6.36555486,1.31544684 C4.98295552,1.31544684 3.71283468,1.85923794 2.78884177,2.84676535 C1.85111503,3.8491982 1.33461777,5.23488899 1.33461777,6.74873219 C1.33461777,8.34601149 1.93699511,9.77453399 3.28760674,11.380551 C4.59301833,12.9329427 6.53470726,14.5636307 8.78288717,16.4518229 L8.78705948,16.4552495 C9.57301843,17.1153714 10.4639806,17.8637267 11.3912765,18.6627947 C12.3241356,17.8621847 13.2164885,17.1126302 14.004012,16.4514803 C16.2520181,14.5632881 18.1935332,12.9329427 19.4989448,11.380551 C20.8493826,9.77453399 21.4517599,8.34601149 21.4517599,6.74873219 C21.4517599,5.23488899 20.9352627,3.8491982 19.9975359,2.84676535 C19.0737169,1.85923794 17.8034222,1.31544684 16.4209967,1.31544684 C15.4081684,1.31544684 14.4782647,1.63274395 13.6571888,2.2584293 C12.9254699,2.81626921 12.4157526,3.52145009 12.1169109,4.01487114 C11.9632308,4.2686061 11.692726,4.42005895 11.3931889,4.42005895 C11.0936517,4.42005895 10.8231469,4.2686061 10.6694668,4.01487114 C10.370799,3.52145009 9.86108173,2.81626921 9.12918893,2.2584293 C8.30811305,1.63274395 7.37820934,1.31544684 6.36555486,1.31544684 Z" id="Shape"></path>
            </g>
        </g>
    </g>
</svg>