<svg width="77" height="70" viewBox="0 0 77 70" version="1.1" xmlns="http://www.w3.org/2000/svg" xmlns:xlink="http://www.w3.org/1999/xlink">
<title>ico</title>
<desc>Created using Figma</desc>
<g id="Canvas" transform="translate(-2063 -5579)">
<g id="ico">
<g id="Vector">
<use xlink:href="#path0_fill" transform="translate(2097.61 5581.98)" fill="#FFFFFF"/>
</g>
<g id="Vector">
<use xlink:href="#path1_fill" transform="translate(2091.4 5579)" fill="#FFFFFF"/>
</g>
<g id="Vector">
<use xlink:href="#path2_fill" transform="translate(2103.07 5627.59)" fill="#FFFFFF"/>
</g>
<g id="Vector">
<use xlink:href="#path3_fill" transform="translate(2100.92 5626.74)" fill="#FFFFFF"/>
</g>
<g id="Vector">
<use xlink:href="#path4_fill" transform="translate(2110 5593.91)" fill="#FFFFFF"/>
</g>
<g id="Vector">
<use xlink:href="#path5_fill" transform="translate(2063 5594.01)" fill="#FFFFFF"/>
</g>
</g>
</g>
<defs>
<path id="path0_fill" d="M 4.2124 8.34587C 6.53885 8.34587 8.4248 6.47758 8.4248 4.17293C 8.4248 1.86829 6.53885 0 4.2124 0C 1.88596 0 0 1.86829 0 4.17293C 0 6.47758 1.88596 8.34587 4.2124 8.34587Z"/>
<path id="path1_fill" d="M 20.3383 5.34352C 20.7124 2.80891 20.0787 1.06965 20.0052 0.87958C 19.7322 0.173689 18.9332 -0.179571 18.2203 0.0909943C 17.5077 0.361402 17.1516 1.15313 17.4246 1.85918C 17.4436 1.90933 19.243 6.80545 13.3331 11.8341C 12.142 12.7692 9.43143 13.1371 7.87299 12.1042C 1.51908 7.62013 2.85947 2.56586 2.87422 2.51413C 3.08038 1.78655 2.65474 1.03019 1.9236 0.824712C 1.19247 0.618919 0.432767 1.04245 0.226456 1.76988C 0.17091 1.96561 -0.298368 3.75471 0.303903 6.24514C 0.842693 8.47412 2.79678 12.9758 7.09345 15.897C 7.26104 17.4183 7.54353 20.118 7.83665 23.5321L 3.56949 22.2931C 3.56949 22.2931 2.59967 22.5313 2.29386 22.8866C 1.98788 23.242 1.88631 23.7275 2.0239 24.174L 5.907 34.328C 6.09506 34.9386 6.67496 35.3239 7.2904 35.2964C 7.40387 35.2914 7.51845 35.2694 7.63192 35.2349C 8.36179 35.0144 8.77282 34.2464 8.55017 33.5233L 7.02473 27.5788C 7.02473 27.5788 9.33129 27.7295 11.5941 29.3127C 13.9406 30.974 13.9952 39.7305 13.7608 45.3262C 13.7295 46.0813 14.2444 46.7476 15.0039 46.8199C 15.0702 46.8262 15.4649 46.8277 15.5297 46.8249C 16.2057 46.7944 16.7739 46.2755 16.8407 45.5886C 17.675 37.0069 14.7598 17.4991 14.5726 15.7608C 18.6801 12.4593 20.0011 7.63145 20.3383 5.34352Z"/>
<path id="path2_fill" d="M 3.16138 0.00062225C 2.6621 0.0169725 2.27075 0.431075 2.28709 0.92567C 2.29074 1.03635 2.62386 6.61949 0.0157652 20.3438C -0.0765989 20.8304 0.246357 21.2986 0.737378 21.3902C 0.793717 21.4008 0.850214 21.4059 0.905601 21.4059C 1.33219 21.4059 1.7118 21.1057 1.79369 20.6755C 4.43797 6.75973 4.09866 0.979753 4.09501 0.866873C 4.07883 0.372435 3.66493 -0.0177718 3.16138 0.00062225Z"/>
<path id="path3_fill" d="M 1.28371 0.000289715C 0.920443 0.00940813 0.633512 0.308431 0.642716 0.667979C 0.644462 0.737625 0.809987 2.15711 0.0044202 9.04293C -0.0373182 9.40043 0.221206 9.72382 0.582092 9.76533C 0.60796 9.76847 0.633511 9.76957 0.658745 9.76957C 0.988208 9.76957 1.2726 9.52495 1.31148 9.19307C 2.128 2.21323 1.95994 0.705551 1.95803 0.635119C 1.94867 0.275571 1.64745 -0.0104008 1.28371 0.000289715Z"/>
<path id="path4_fill" d="M 20.2758 6.30476C 19.5347 6.30476 18.8145 6.38949 18.1213 6.54514C 16.8217 2.74024 13.1904 -2.3989e-07 8.91091 -2.3989e-07C 4.92354 -2.3989e-07 1.49956 2.37959 -1.47232e-06 5.78218C 0.171554 7.01473 0.355806 8.3935 0.537678 9.8622C 1.30151 10.2716 1.71841 10.6458 1.71841 10.6458C 1.71841 10.6458 1.74825 9.42137 2.36607 7.44094C 3.28876 4.73482 5.86829 2.78379 8.91091 2.78379C 11.9502 2.78379 14.5267 4.72931 15.4521 7.43057C 15.9271 8.95507 15.9271 8.95507 16.1632 10.2956C 17.135 9.74193 17.499 9.54871 18.6723 9.28318C 19.1874 9.16149 19.7219 9.08839 20.2758 9.08839C 24.094 9.08839 27.1893 12.1912 27.1893 15.9736C 27.1893 19.7558 24.094 22.8589 20.2758 22.8589C 19.8497 22.8589 8.05328 22.8589 1.64303 22.8589C 1.67223 23.8022 1.68318 24.7455 1.67207 25.5316C 8.12787 25.5316 20.0074 25.5316 20.276 25.5316C 25.6459 25.5316 29.9994 21.2379 29.9994 15.9182C 29.9991 10.5981 25.6458 6.30476 20.2758 6.30476Z"/>
<path id="path5_fill" d="M 9.72361 22.7602C 5.90622 22.7602 2.81012 19.7063 2.81012 15.9242C 2.81012 12.1418 5.90606 9.08178 9.72361 9.08178C 10.2721 9.08178 10.8023 9.15505 11.3141 9.27485C 12.9287 9.81535 13.8457 10.6432 13.8457 10.6432C 13.8457 10.6432 13.8754 9.41995 14.4934 7.43953C 15.4161 4.73356 17.9954 2.783 21.038 2.783C 23.3546 2.783 25.4012 3.91369 26.6538 5.6476C 27.3423 4.91373 28.2912 4.48736 29.0945 4.24321C 27.3472 1.68361 24.392 -4.9897e-07 21.0379 -4.9897e-07C 16.7626 -4.9897e-07 13.1343 2.73505 11.8318 6.53429C 11.1524 6.38541 10.4478 6.30475 9.72329 6.30475C 4.35349 6.30475 -3.32968e-08 10.5489 -3.32968e-08 15.8687C 0.000317369 21.1884 4.3538 25.4328 9.72361 25.4328C 10.0896 25.4328 32.037 25.4328 32.4033 25.4328C 33.4972 25.4328 34.5475 25.3017 35.5289 24.9752C 34.6697 24.7074 31.8805 23.0746 31.2779 22.7602C 26.7516 22.7602 10.2291 22.7602 9.72361 22.7602Z"/>
</defs>
</svg>
