<?xml version="1.0" encoding="UTF-8"?>
<svg width="21px" height="20px" viewBox="0 0 21 20" version="1.1" xmlns="http://www.w3.org/2000/svg" xmlns:xlink="http://www.w3.org/1999/xlink">
    <!-- Generator: Sketch 46.2 (44496) - http://www.bohemiancoding.com/sketch -->
    <title>profile (1)</title>
    <desc>Created with Sketch.</desc>
    <defs></defs>
    <g id="Page-1" stroke="none" stroke-width="1" fill="none" fill-rule="evenodd">
        <g id="landing-page" transform="translate(-1212.000000, -34.000000)" fill-rule="nonzero" fill="#FFFFFF">
            <g id="profile-(1)" transform="translate(1212.000000, 34.000000)">
                <path d="M10.5,11 C13.5368295,11 16,8.53301411 16,5.49156218 C16,2.45011025 13.536793,0 10.5,0 C7.46320697,0 5,2.46698589 5,5.49156218 C5,8.51613846 7.46317049,11 10.5,11 Z M10.5,1.43625641 C12.7269816,1.43625641 14.5490939,3.26112757 14.5490939,5.49156218 C14.5490939,7.72199679 12.7269816,9.54683142 10.5,9.54683142 C8.27301844,9.54683142 6.45090615,7.72196026 6.45090615,5.49152565 C6.45090615,3.26109104 8.27298197,1.43625641 10.5,1.43625641 Z" id="Shape"></path>
                <path d="M0.741371599,20 L20.2586284,20 C20.6724189,20 21,19.6637221 21,19.2389461 C21,15.2566419 17.8448379,12 13.9482669,12 L7.05173313,12 C3.17241893,12 0,15.238927 0,19.2389461 C0,19.6637221 0.327581066,20 0.741371599,20 Z M7.05173313,13.5221078 L13.9482669,13.5221078 C16.7758479,13.5221078 19.103429,15.681418 19.4655237,18.4778539 L1.53447633,18.4778539 C1.89653373,15.6991329 4.22415207,13.5221078 7.05173313,13.5221078 Z" id="Shape"></path>
            </g>
        </g>
    </g>
</svg>