<?xml version="1.0" encoding="UTF-8"?>
<svg width="20px" height="20px" viewBox="0 0 20 20" version="1.1" xmlns="http://www.w3.org/2000/svg" xmlns:xlink="http://www.w3.org/1999/xlink">
    <!-- Generator: Sketch 46.2 (44496) - http://www.bohemiancoding.com/sketch -->
    <title>search-magnifier-interface-symbol</title>
    <desc>Created with Sketch.</desc>
    <defs></defs>
    <g id="Page-1" stroke="none" stroke-width="1" fill="none" fill-rule="evenodd">
        <g id="landing-page" transform="translate(-1122.000000, -34.000000)" fill-rule="nonzero" fill="#000000">
            <g id="search-magnifier-interface-symbol" transform="translate(1122.000000, 34.000000)">
                <path d="M7.76270799,0 C3.47650897,0 0.00114192496,3.47536705 0.00114192496,7.76159869 C0.00114192496,12.0478303 3.47650897,15.5231974 7.76274062,15.5231974 C9.41096248,15.5231974 10.9395106,15.0091028 12.1959869,14.1334095 L12.1969005,14.1324959 L17.9532463,19.8888744 C18.0600653,19.9956933 18.2299184,19.9984339 18.3395106,19.8888744 L19.8909299,18.3374551 C19.9977488,18.2306362 19.9922675,18.0535073 19.8900163,17.9512235 L14.1345188,12.1957586 C15.0102121,10.9383687 15.5243067,9.40978793 15.5243067,7.76159869 C15.5243067,3.47536705 12.0489396,0 7.76270799,0 Z M7.76270799,13.6969331 C4.4845677,13.6969331 1.82737357,11.039739 1.82737357,7.76159869 C1.82737357,4.4834584 4.48460033,1.82626427 7.76270799,1.82626427 C11.0408157,1.82626427 13.6980424,4.4834584 13.6980424,7.76159869 C13.6980424,11.039739 11.0408483,13.6969331 7.76270799,13.6969331 Z" id="Shape"></path>
            </g>
        </g>
    </g>
</svg>