<svg width="182" height="30" viewBox="0 0 182 30" fill="none" xmlns="http://www.w3.org/2000/svg">
<path d="M23.3125 5.30859H14.875L10.7734 29H5.05078L9.15234 5.30859H0.8125L1.65234 0.5625H24.1523L23.3125 5.30859ZM35.0979 18.5898H30.4494L28.633 29H22.9104L27.8518 0.5625L37.2659 0.582031C40.4169 0.582031 42.8388 1.32422 44.5315 2.80859C46.2372 4.29297 46.9924 6.35677 46.7971 9C46.5237 12.9062 44.4403 15.6211 40.5471 17.1445L44.551 28.6875V29H38.4573L35.0979 18.5898ZM31.2698 13.8438L35.5276 13.8828C37.038 13.8568 38.2815 13.4531 39.258 12.6719C40.2476 11.8776 40.8401 10.8034 41.0354 9.44922C41.2177 8.1862 41.0159 7.19661 40.4299 6.48047C39.844 5.76432 38.913 5.38021 37.6369 5.32812L32.7541 5.30859L31.2698 13.8438ZM66.9223 16.6758H56.0239L54.6958 24.293H67.5083L66.688 29H48.1528L53.0942 0.5625H71.5903L70.7505 5.30859H57.9966L56.8051 12.0859H67.7426L66.9223 16.6758ZM92.946 29H87.3991L79.489 10.0352L76.1882 29H70.4655L75.4069 0.5625H80.9343L88.864 19.5664L92.1648 0.5625H97.8679L92.946 29ZM98.3642 29L103.306 0.5625L111.47 0.582031C113.384 0.621094 115.102 1.05729 116.626 1.89062C118.162 2.71094 119.406 3.89583 120.356 5.44531C121.307 6.99479 121.88 8.73958 122.075 10.6797C122.179 11.8125 122.166 12.9714 122.036 14.1562L121.899 15.1914C121.326 19.3581 119.686 22.7044 116.977 25.2305C114.282 27.7435 111.007 29 107.153 29H98.3642ZM108.208 5.30859L104.907 24.293L107.29 24.3125C109.92 24.3125 112.03 23.349 113.618 21.4219C115.22 19.4948 116.138 16.5846 116.372 12.6914L116.411 12.0664C116.45 9.91797 116.04 8.27083 115.181 7.125C114.321 5.97917 113.039 5.38021 111.333 5.32812L108.208 5.30859ZM130.169 29H124.446L129.368 0.5625H135.091L130.169 29ZM154.65 16.6758H143.751L142.423 24.293H155.236L154.415 29H135.88L140.822 0.5625H159.318L158.478 5.30859H145.724L144.533 12.0859H155.47L154.65 16.6758ZM173.838 21.4023C174.111 19.8529 173.349 18.668 171.552 17.8477L167.783 16.3438C163.408 14.3906 161.331 11.7018 161.552 8.27734C161.644 6.6888 162.164 5.28255 163.115 4.05859C164.065 2.83464 165.4 1.8776 167.119 1.1875C168.838 0.484375 170.693 0.145833 172.685 0.171875C175.433 0.223958 177.653 1.04427 179.345 2.63281C181.038 4.20833 181.871 6.32422 181.845 8.98047H176.142C176.207 7.69141 175.921 6.6888 175.283 5.97266C174.658 5.25651 173.681 4.88542 172.353 4.85938C171.051 4.83333 169.918 5.13281 168.955 5.75781C167.991 6.36979 167.418 7.21615 167.236 8.29688C166.989 9.71615 167.939 10.8424 170.088 11.6758L172.666 12.6523L174.15 13.3359C177.991 15.237 179.788 17.9062 179.541 21.3438C179.423 23.0234 178.883 24.4753 177.92 25.6992C176.969 26.9102 175.667 27.8411 174.013 28.4922C172.373 29.1432 170.563 29.4492 168.584 29.4102C166.565 29.3711 164.769 28.9479 163.193 28.1406C161.618 27.3333 160.42 26.194 159.599 24.7227C158.831 23.3555 158.473 21.793 158.525 20.0352L164.248 20.0547C164.065 23.1406 165.582 24.7096 168.798 24.7617C170.192 24.7617 171.338 24.4557 172.236 23.8438C173.134 23.2318 173.668 22.418 173.838 21.4023Z" fill="#FFFFFE"/>
</svg>
